<svg width="22" height="15" viewBox="0 0 22 15" fill="none" xmlns="http://www.w3.org/2000/svg">
<g clip-path="url(#clip0)">
<path d="M14.9583 10.5546C13.887 9.48343 12.4079 8.82009 10.777 8.82009C9.14598 8.82009 7.66687 9.48343 6.59573 10.5546L4.23563 8.19447C5.91154 6.51864 8.22542 5.48045 10.777 5.48045C13.3287 5.48045 15.6424 6.51864 17.3184 8.19447L14.9583 10.5546ZM8.10081 12.0596L10.777 14.7359L13.4533 12.0596C12.7683 11.375 11.8221 10.9514 10.777 10.9514C9.73186 10.9514 8.78576 11.375 8.10081 12.0596ZM10.777 3.60493C13.8458 3.60493 16.6286 4.85312 18.6441 6.86891L21.0044 4.50881C18.384 1.88842 14.7665 0.265625 10.7771 0.265625C6.78759 0.265625 3.17003 1.88842 0.549805 4.50881L2.90999 6.86891C4.92544 4.85312 7.70832 3.60493 10.777 3.60493Z" fill="white"/>
</g>
<defs>
<clipPath id="clip0">
<rect width="20.4545" height="15" fill="white" transform="translate(0.549805)"/>
</clipPath>
</defs>
</svg>
