<svg width="10" height="10" viewBox="0 0 10 10" fill="none" xmlns="http://www.w3.org/2000/svg">
<path d="M2.85715 1.78571H8.92857C9.52031 1.78571 10 2.2654 10 2.85713V8.92855C10 9.52028 9.52031 9.99998 8.92857 9.99998H2.85715C2.26542 9.99998 1.78573 9.52028 1.78573 8.92855V2.85713C1.78573 2.2654 2.26542 1.78571 2.85715 1.78571ZM2.50001 8.92857C2.50001 9.12582 2.6599 9.28572 2.85715 9.28572H8.92857C9.12582 9.28572 9.28572 9.12582 9.28572 8.92857V2.85713C9.28572 2.65988 9.12582 2.49998 8.92857 2.49998H2.85715C2.6599 2.49998 2.50001 2.65988 2.50001 2.85713V8.92857Z" fill="black" fill-opacity="0.6"/>
<path d="M1.07132 0H7.49986C8.0916 0 8.57129 0.479694 8.57129 1.07143C8.57129 1.26868 8.41139 1.42858 8.21414 1.42858C8.01689 1.42858 7.85701 1.26868 7.85701 1.07143C7.85701 0.874176 7.69712 0.714278 7.49986 0.714278H1.07132C0.87407 0.714278 0.714172 0.874176 0.714172 1.07143V7.49999C0.714172 7.69725 0.87407 7.85714 1.07132 7.85714C1.26857 7.85714 1.42847 8.01704 1.42847 8.21429C1.42847 8.41155 1.26857 8.57144 1.07132 8.57144C0.47959 8.57144 -0.000103125 8.09175 -0.000103125 7.50002V1.07143C-0.000103125 0.479694 0.47959 0 1.07132 0Z" fill="black" fill-opacity="0.6"/>
</svg>
