<svg width="10" height="10" viewBox="0 0 10 10" fill="none" xmlns="http://www.w3.org/2000/svg">
<path d="M5.23063 0.0801705C5.32482 0.112235 5.68955 0.222455 6.04226 0.328668C6.39496 0.43488 6.74166 0.539088 6.8138 0.561132C6.93204 0.597205 7.1625 0.667345 7.65549 0.815641C7.74967 0.843698 7.92001 0.895802 8.03625 0.931874C8.15248 0.967946 8.35889 1.03007 8.49717 1.07015C8.78174 1.15231 9.00218 1.21845 9.08434 1.24851C9.1144 1.25853 9.14446 1.28658 9.15048 1.31264C9.15649 1.33668 9.15649 2.14029 9.15248 3.09821C9.14446 4.75151 9.14246 4.84971 9.10238 5.05011C9.03224 5.41284 8.94406 5.71544 8.78975 6.12827C8.74967 6.23248 8.44306 6.83167 8.40899 6.87376C8.39496 6.88979 8.35689 6.94791 8.32482 7.00402C8.29476 7.05813 8.20258 7.1944 8.12242 7.30462C8.04226 7.41484 7.96009 7.52706 7.94206 7.55512C7.78174 7.77757 7.14647 8.45292 6.8639 8.69941C6.65749 8.87777 6.29877 9.16233 6.12242 9.28458C5.78574 9.51905 5.31079 9.81765 5.09637 9.92987L4.99015 9.98398L4.72562 9.82767C3.47512 9.0962 2.51119 8.22446 1.79977 7.18438C1.32081 6.48498 1.01219 5.73949 0.903978 5.01203C0.85989 4.72747 0.843858 4.02606 0.847866 2.67135C0.851874 1.493 0.855882 1.29861 0.881934 1.27456C0.897966 1.26053 1.05628 1.20442 1.23264 1.15231C1.79175 0.987986 2.02222 0.91985 2.52522 0.767545C2.79576 0.687385 3.15047 0.579169 3.31681 0.529068C3.48113 0.478968 3.74366 0.398808 3.89797 0.350712C4.05228 0.302615 4.30077 0.226463 4.44907 0.180371C4.59737 0.134279 4.77372 0.0801705 4.83785 0.0581264C4.98815 0.0100302 5.02222 0.0120343 5.23063 0.0801705ZM4.98815 0.905822C4.98815 1.10021 4.98815 4.33468 4.99015 8.96394C4.99015 9.27656 4.99015 9.28057 5.03224 9.26855C5.05629 9.26053 5.10438 9.23448 5.14045 9.21043C5.37292 9.06013 5.52122 8.96594 5.54927 8.94791C5.77973 8.80161 6.1625 8.51304 6.39296 8.31063C6.51721 8.20041 7.04627 7.67937 7.14446 7.57115C7.53725 7.13428 7.912 6.57716 8.14647 6.08017C8.19657 5.97596 8.23665 5.88177 8.23665 5.86975C8.23665 5.85773 8.25068 5.82366 8.26671 5.7956C8.32883 5.68137 8.43905 5.30462 8.50118 4.994C8.54326 4.78759 8.54527 4.71945 8.55128 3.25252L8.55929 1.72346L8.5132 1.70542C8.48715 1.6954 8.39897 1.66935 8.31681 1.6453C8.12442 1.58919 8.04426 1.56514 7.24466 1.32266C6.55929 1.11424 6.47713 1.09019 6.24266 1.02205C5.97011 0.941894 5.81981 0.895802 5.7116 0.85973C5.65148 0.83969 5.51921 0.799609 5.42101 0.771553C5.32081 0.741493 5.20458 0.705421 5.16049 0.691393C4.98614 0.633277 4.99015 0.629269 4.98815 0.905822Z" fill="black" fill-opacity="0.6"/>
</svg>
