<svg width="17" height="15" viewBox="0 0 17 15" fill="none" xmlns="http://www.w3.org/2000/svg">
<path d="M1.52007 0.110369C0.927717 0.211115 0.335364 0.681264 0.111835 1.21858C0.0335996 1.42007 7.01481e-05 2.8641 0.0224231 5.77455L0.0559525 10.0395L0.38007 10.4536C0.849482 11.0805 1.22948 11.1925 2.83889 11.1925H4.23595L4.57125 10.7671L4.91772 10.3529L3.11831 10.2969C1.39713 10.241 1.30772 10.2298 1.10654 9.97231C0.905364 9.72604 0.894188 9.47977 0.894188 5.59544V1.46485L1.18478 1.24097C1.47536 1.00589 1.57595 1.00589 8.31536 1.00589C14.876 1.00589 15.1554 1.01709 15.4236 1.22977L15.703 1.44246V5.65141V9.87156L15.4348 10.0842C15.2001 10.2745 14.9765 10.2969 13.3895 10.2969H11.6012L11.9701 10.7559L12.3277 11.2148L13.926 11.1701C15.6918 11.1365 15.8818 11.0693 16.4071 10.2969L16.6642 9.91634L16.6307 5.53947L16.5971 1.16261L16.3177 0.815593C15.6918 0.032011 15.9824 0.0543985 8.66184 0.032011C5.04066 0.032011 1.82183 0.0655928 1.52007 0.110369Z" fill="#22292E" fill-opacity="0.8"/>
<path d="M5.57767 11.4963C4.20297 13.0746 3.02944 14.4403 2.97356 14.5299C2.9065 14.653 2.94003 14.7425 3.08532 14.8545C3.24179 14.9664 4.2812 15 8.24885 15C11.3894 15 13.2783 14.9552 13.4124 14.8881C13.6359 14.7761 13.6136 14.5187 13.3677 14.2612C13.3006 14.194 12.1718 12.8955 10.853 11.3731C9.53414 9.86194 8.37179 8.6194 8.2712 8.6194C8.17061 8.6194 6.96356 9.91791 5.57767 11.4963Z" fill="#22292E" fill-opacity="0.8"/>
</svg>
