<svg width="12" height="12" viewBox="0 0 12 12" fill="none" xmlns="http://www.w3.org/2000/svg">
<path d="M5.04848 0.0894289C3.36848 0.391469 1.73648 1.52616 0.888477 2.97922C-0.0315227 4.53841 -0.207523 6.53025 0.424477 8.23637C0.712477 9.00371 1.26448 9.918 1.71248 10.3588L2.00048 10.6445L2.20048 10.4486C2.31248 10.3425 2.40048 10.22 2.40048 10.1792C2.40048 10.1384 2.22448 9.90167 2.00048 9.65678C1.17648 8.70167 0.712477 7.45269 0.712477 6.13025C0.712477 4.5629 1.28848 3.19147 2.38448 2.14657C3.48848 1.08535 5.25648 0.497592 6.62448 0.726163C8.00048 0.954735 8.99248 1.48535 9.87248 2.45678C11.7685 4.54657 11.7525 7.71392 9.82448 9.84453L9.52048 10.1792L9.68848 10.3996C9.90448 10.6853 9.99248 10.669 10.3365 10.3017C10.8165 9.79555 11.3285 8.93841 11.5925 8.20371C12.9685 4.318 10.2885 0.244531 6.24048 0.0486126C5.82448 0.0241222 5.28848 0.0404491 5.04848 0.0894289Z" fill="#3D4A53"/>
<path d="M5.20089 1.88398C3.72089 2.12887 2.21689 3.56561 1.88889 5.05949C1.56889 6.48806 1.88089 7.91663 2.72089 8.91255C3.08889 9.3452 3.19289 9.37785 3.40089 9.14112C3.56889 8.9452 3.53689 8.86357 3.03289 8.16153C2.56089 7.50847 2.36889 6.78194 2.41689 5.85949C2.45689 5.23908 2.50489 5.04316 2.74489 4.5452C3.12089 3.76969 3.69689 3.18193 4.44089 2.80642C4.94489 2.55336 5.12889 2.50438 5.73689 2.47173C6.25689 2.43908 6.56889 2.46357 6.88889 2.56153C8.95289 3.16561 10.0569 5.33704 9.36089 7.39418C9.20889 7.82683 9.02489 8.13704 8.61689 8.64316L8.39289 8.91255L8.61689 9.15745L8.84089 9.40234L9.16089 9.035C10.1609 7.91663 10.4889 6.21051 10.0009 4.73295C9.53689 3.32071 8.27289 2.19418 6.84089 1.91663C6.16889 1.78602 5.86489 1.77785 5.20089 1.88398Z" fill="#3D4A53"/>
<path d="M5.28021 3.61633C4.52821 3.82857 3.96821 4.34286 3.62421 5.12653C3.24821 5.95102 3.46421 7.28163 4.05621 7.85306C4.20021 7.99184 4.28021 8.01633 4.37621 7.95102C4.61621 7.80408 4.68821 7.60816 4.57621 7.4449C4.52021 7.37143 4.38421 7.1102 4.26421 6.86531C3.60821 5.47755 4.87221 3.91837 6.38421 4.25306C7.24021 4.43265 7.85621 5.21633 7.85621 6.11429C7.85621 6.57143 7.78421 6.78367 7.37621 7.4449C7.25621 7.64898 7.25621 7.67347 7.39221 7.82857C7.48021 7.92653 7.58421 8 7.64021 8C7.78421 8 8.04021 7.68163 8.28821 7.19184C8.47221 6.82449 8.51221 6.65306 8.51221 6.12245C8.51221 5.59184 8.47221 5.42041 8.28821 5.05306C7.99221 4.46531 7.50421 3.96735 7.02421 3.7551C6.53621 3.54286 5.75221 3.47755 5.28021 3.61633Z" fill="#3D4A53"/>
<path d="M4.10463 9.50934C3.10463 10.6685 2.24863 11.6644 2.20863 11.7297C2.17663 11.7951 2.17663 11.8849 2.21663 11.9257C2.25663 11.9665 3.84063 11.991 6.00863 11.9828C9.48063 11.9583 9.72063 11.9502 9.72063 11.8195C9.72063 11.7379 9.47263 11.3787 9.16063 11.0114C7.68063 9.25628 6.11263 7.47669 6.02463 7.4522C5.97663 7.42771 5.11263 8.35832 4.10463 9.50934Z" fill="#3D4A53"/>
</svg>
