<svg width="8" height="12" viewBox="0 0 8 12" fill="none" xmlns="http://www.w3.org/2000/svg">
<path d="M7.34856 8.30785L4.57915 6L7.34856 3.69216C7.61019 3.47414 7.61019 3.07228 7.34856 2.85425L4.07641 0.127447C3.7212 -0.168564 3.1819 0.0840253 3.1819 0.546414V4.6834L1.38608 2.88758C1.1731 2.67459 0.827804 2.67459 0.614818 2.88758C0.401832 3.10056 0.401832 3.44585 0.614818 3.65884L2.95598 6L0.614818 8.34117C0.401832 8.55415 0.401832 8.89945 0.614818 9.11243C0.827804 9.32542 1.1731 9.32542 1.38608 9.11243L3.1819 7.31661V11.4536C3.1819 11.916 3.72118 12.1685 4.07641 11.8726L7.34856 9.14575C7.61021 8.92771 7.61021 8.52587 7.34856 8.30785ZM4.27264 1.71075L6.14755 3.27317L4.27264 4.8356V1.71075ZM4.27264 10.2892V7.16436L6.14755 8.72679L4.27264 10.2892Z" fill="white"/>
</svg>
