<svg width="14" height="12" viewBox="0 0 14 12" fill="none" xmlns="http://www.w3.org/2000/svg">
<path d="M6.18068 0.00666719C5.10596 0.162964 4.17197 0.497885 3.31795 1.04014C3.11643 1.16773 2.92132 1.28894 2.88614 1.30807C2.72301 1.40058 2.40955 1.6717 2.10248 1.98749C1.44038 2.66371 1.20368 2.96673 0.966985 3.43243C0.893417 3.58235 0.759077 3.8439 0.669516 4.01296C0.349658 4.62858 0.093771 5.59187 0.0202035 6.43077C-0.0597612 7.38769 0.100168 8.48176 0.455211 9.38764C0.768673 10.1851 1.1557 10.8549 1.65148 11.4418C2.0609 11.9299 2.0673 11.933 2.34238 11.933C2.55988 11.933 2.58547 11.9267 2.67823 11.8373C2.72941 11.7863 2.79018 11.6906 2.80937 11.6236C2.86375 11.4163 2.81897 11.2983 2.56308 10.9985C2.19844 10.5678 2.15366 10.5104 2.01612 10.3063C1.52994 9.57584 1.23247 8.86453 1.05974 8.00649C0.976581 7.59183 0.976581 6.35422 1.05974 5.90446C1.17809 5.26014 1.53953 4.32555 1.8402 3.87899C2.44793 2.97949 2.65904 2.74345 3.36592 2.19482C4.092 1.62705 4.64856 1.36868 5.64972 1.13264C6.96753 0.816857 8.50925 1.00186 9.71832 1.61748C10.2237 1.87584 11.1417 2.5712 11.452 2.93164C11.6023 3.11027 11.6471 3.16768 12.0437 3.7514C12.2964 4.12141 12.5139 4.56797 12.6866 5.07195C13.1184 6.32232 13.096 7.78321 12.629 9.03039C12.4691 9.45782 11.887 10.4849 11.7654 10.5615C11.743 10.5742 11.6918 10.6412 11.6439 10.7114C11.5991 10.7847 11.4743 10.9378 11.3624 11.0559C11.0777 11.3589 11.0297 11.5567 11.1833 11.8118C11.2312 11.8884 11.292 11.9267 11.42 11.9681C11.7526 12.0702 11.9445 11.949 12.4755 11.2823C13.5406 9.94265 14.1036 8.14684 13.9724 6.4818C13.9053 5.6142 13.6526 4.6509 13.3231 4.01296C13.2336 3.8439 13.0992 3.58235 13.0257 3.43243C12.789 2.96673 12.5523 2.66371 11.8902 1.98749C11.5831 1.6717 11.2696 1.40058 11.1065 1.30807C11.0713 1.28894 10.8762 1.16773 10.6747 1.04014C9.96781 0.593576 9.18095 0.274604 8.33973 0.0959794C7.97509 0.0194261 7.86314 0.0130466 7.10827 0.00347747C6.65087 -0.00290198 6.23506 0.000287745 6.18068 0.00666719Z" fill="white"/>
<path d="M6.5005 1.99274C6.16784 2.03421 5.76482 2.12033 5.46096 2.21921C5.05793 2.35318 4.29667 2.73276 4.0152 2.94328C3.69854 3.18251 3.03963 3.88424 2.82212 4.21279C2.23678 5.09953 1.93611 6.29249 2.03527 7.34509C2.07685 7.79484 2.11843 8.00218 2.26557 8.50296C2.37112 8.86021 2.49587 9.16961 2.58223 9.30039C2.61102 9.34505 2.73256 9.53005 2.85411 9.71187C2.97565 9.89368 3.19316 10.168 3.33709 10.3179L3.59938 10.5922L3.80409 10.589C4.05678 10.5859 4.18152 10.5125 4.25829 10.3211C4.36384 10.0595 4.32546 9.96386 3.94163 9.52367C3.80089 9.361 3.64736 9.15367 3.59938 9.06435C3.35309 8.60822 3.30511 8.49977 3.18996 8.15528C3.12279 7.95114 3.04922 7.67364 3.03323 7.53648C2.95326 6.96552 3.01084 6.29249 3.18036 5.74385C3.25073 5.51738 3.3211 5.37385 3.66015 4.7359C3.75931 4.54771 4.20391 4.03735 4.34465 3.94804C4.40542 3.90976 4.58454 3.78536 4.74127 3.67053C5.43217 3.16656 6.23182 2.93052 7.13382 2.96242C7.95266 2.99112 8.62756 3.2144 9.25128 3.67053C9.41121 3.78536 9.58713 3.90976 9.64791 3.94804C9.78864 4.03735 10.2332 4.54771 10.3324 4.7359C10.6715 5.37385 10.7418 5.51738 10.8122 5.74385C11.1161 6.71991 11.0425 7.75019 10.6011 8.66245C10.3868 9.10263 10.31 9.22384 10.0125 9.56514C9.80783 9.80437 9.71188 9.94153 9.69588 10.0181C9.62871 10.3849 9.91339 10.656 10.2972 10.5922C10.3932 10.5763 10.4635 10.5221 10.6683 10.3052C10.809 10.1584 11.0201 9.89049 11.1384 9.70868C11.26 9.52686 11.3815 9.34505 11.4103 9.30039C11.4967 9.16961 11.6214 8.86021 11.727 8.50296C11.8741 8.00218 11.9157 7.79484 11.9573 7.34509C12.0564 6.29249 11.7558 5.09953 11.1704 4.21279C10.9529 3.88424 10.294 3.18251 9.97736 2.94328C9.68309 2.72319 8.87385 2.32128 8.49002 2.20326C7.87269 2.01507 7.05385 1.92895 6.5005 1.99274Z" fill="white"/>
<path d="M6.32437 4.03649C5.84138 4.16089 5.36159 4.40331 5.05453 4.68719C4.78585 4.9328 4.4372 5.37936 4.30606 5.65049C4.23569 5.79722 4.14293 6.05559 4.09496 6.22783C3.98301 6.64887 3.97661 7.27087 4.08216 7.65683C4.2197 8.17037 4.56195 8.76366 4.8978 9.07306C5.03214 9.19427 5.05773 9.20703 5.21446 9.20703C5.41917 9.20703 5.5663 9.12091 5.65586 8.95185C5.77741 8.72538 5.71984 8.51167 5.46075 8.23417C5.29442 8.05235 5.15049 7.80993 5.07372 7.57708C4.97457 7.26768 4.96497 6.67439 5.05773 6.40008C5.15689 6.10024 5.33281 5.8036 5.53112 5.5867C5.69745 5.40488 5.77741 5.35066 6.08128 5.20393C6.75938 4.87539 7.29034 4.87858 7.95565 5.21988C8.32988 5.41445 8.57937 5.65687 8.76489 6.01093C8.9568 6.38094 8.99519 6.53404 8.99519 6.95828C8.99519 7.27725 8.98239 7.37932 8.91842 7.57708C8.83526 7.82588 8.70092 8.04916 8.49301 8.27563C8.27231 8.51805 8.22433 8.72538 8.33948 8.94866C8.42584 9.11772 8.57617 9.20703 8.78408 9.20703C8.93121 9.20703 8.9632 9.19427 9.09434 9.07306C9.43019 8.76366 9.77244 8.17037 9.90998 7.65683C10.0155 7.27087 10.0091 6.64887 9.89719 6.22783C9.77884 5.79084 9.60292 5.43997 9.32144 5.10505C8.84805 4.53728 8.5058 4.30124 7.8277 4.07796C7.62299 4.01097 7.51424 3.99821 7.07604 3.98865C6.65062 3.97908 6.52268 3.98865 6.32437 4.03649Z" fill="white"/>
<path d="M6.76231 5.98602C6.48084 6.05939 6.25693 6.25715 6.08101 6.59207C6.00425 6.74199 6.00425 7.13113 6.08101 7.30657C6.17697 7.52985 6.38168 7.7627 6.5576 7.85201C6.77511 7.96046 7.17493 7.96684 7.41162 7.86477C7.59074 7.78822 7.79545 7.56494 7.90101 7.33528C7.99697 7.11519 7.99697 6.75794 7.89461 6.56017C7.76987 6.32413 7.58115 6.12637 7.41162 6.05301C7.22611 5.97326 6.93503 5.94456 6.76231 5.98602Z" fill="white"/>
</svg>
