<svg width="15" height="15" viewBox="0 0 15 15" fill="none" xmlns="http://www.w3.org/2000/svg">
<g clip-path="url(#clip0)">
<path d="M14.8167 13.933L10.5511 9.66741C11.3774 8.6468 11.8749 7.34993 11.8749 5.93745C11.8749 2.66373 9.21114 0 5.93742 0C2.6637 0 0 2.6637 0 5.93742C0 9.21114 2.66373 11.8749 5.93745 11.8749C7.34993 11.8749 8.6468 11.3774 9.66741 10.5511L13.933 14.8167C14.0549 14.9386 14.2149 14.9999 14.3749 14.9999C14.5349 14.9999 14.6949 14.9386 14.8168 14.8167C15.0611 14.5724 15.0611 14.1774 14.8167 13.933ZM5.93745 10.6249C3.35247 10.6249 1.25 8.52241 1.25 5.93742C1.25 3.35244 3.35247 1.24997 5.93745 1.24997C8.52244 1.24997 10.6249 3.35244 10.6249 5.93742C10.6249 8.52241 8.52241 10.6249 5.93745 10.6249Z" fill="white"/>
</g>
<defs>
<clipPath id="clip0">
<rect width="15" height="15" fill="white"/>
</clipPath>
</defs>
</svg>
