<svg width="15" height="15" viewBox="0 0 15 15" fill="none" xmlns="http://www.w3.org/2000/svg">
<circle cx="3.5" cy="3.5" r="2" fill="white"/>
<path d="M3.5 6C2.1215 6 1 4.8785 1 3.5C1 2.1215 2.1215 1 3.5 1C4.8785 1 6 2.1215 6 3.5C6 4.8785 4.8785 6 3.5 6ZM3.5 1.5C2.39725 1.5 1.5 2.39725 1.5 3.5C1.5 4.60275 2.39725 5.5 3.5 5.5C4.60275 5.5 5.5 4.60275 5.5 3.5C5.5 2.39725 4.60275 1.5 3.5 1.5Z" fill="white"/>
<path d="M11.5 7H3.5C1.57 7 0 5.43 0 3.5C0 1.57 1.57 -9.53674e-07 3.5 -9.53674e-07H11.5C13.43 -9.53674e-07 15 1.57 15 3.5C15 5.43 13.43 7 11.5 7ZM11.5 0.499999H3.5C1.84575 0.499999 0.5 1.84575 0.5 3.5C0.5 5.15425 1.84575 6.5 3.5 6.5H11.5C13.1543 6.5 14.5 5.15425 14.5 3.5C14.5 1.84575 13.1543 0.499999 11.5 0.499999Z" fill="white"/>
<path d="M3.5 8H11.5C13.43 8 15 9.57 15 11.5C15 13.43 13.43 15 11.5 15H3.5C1.57 15 0 13.43 0 11.5C0 9.57 1.57 8 3.5 8ZM11.5 14C12.8785 14 14 12.8785 14 11.5C14 10.1215 12.8785 9 11.5 9C10.1215 9 9 10.1215 9 11.5C9 12.8785 10.1215 14 11.5 14Z" fill="white"/>
</svg>
