<svg width="12" height="10" viewBox="0 0 12 10" fill="none" xmlns="http://www.w3.org/2000/svg">
<path d="M6.00361 8.74139C6.00361 8.95279 5.88147 9.14484 5.69032 9.23448C5.61641 9.26943 5.53722 9.28633 5.45854 9.28633C5.33395 9.28633 5.21052 9.24351 5.11081 9.16083L2.13164 6.69216H0.544939C0.244029 6.69242 0 6.44826 0 6.14736V3.97624C0 3.6752 0.244029 3.43117 0.544939 3.43117H2.13177L5.11094 0.962505C5.27372 0.827593 5.49943 0.79883 5.69045 0.889116C5.88147 0.978757 6.00374 1.17094 6.00374 1.38221L6.00361 8.74139ZM8.09785 7.88987C8.08457 7.89077 8.0718 7.89129 8.05864 7.89129C7.9147 7.89129 7.77592 7.83441 7.67338 7.73174L7.60051 7.65861C7.40936 7.46785 7.38692 7.16565 7.54788 6.94871C7.95597 6.39848 8.17137 5.74623 8.17137 5.06199C8.17137 4.32603 7.92683 3.63574 7.46405 3.06565C7.28786 2.84896 7.30411 2.53425 7.50158 2.33691L7.57432 2.26404C7.68318 2.15518 7.82906 2.09585 7.98693 2.10526C8.14067 2.113 8.28423 2.18536 8.38174 2.30454C9.02367 3.09002 9.36275 4.0437 9.36275 5.06212C9.36275 6.01064 9.06288 6.91349 8.49537 7.67267C8.40057 7.7992 8.25559 7.87865 8.09785 7.88987ZM10.3509 9.57395C10.2523 9.69042 10.1098 9.76033 9.95722 9.76678C9.94974 9.76704 9.94213 9.7673 9.93439 9.7673C9.79006 9.7673 9.65154 9.71029 9.549 9.60775L9.47742 9.53616C9.27737 9.33625 9.26383 9.01651 9.44569 8.80008C10.3246 7.75483 10.8087 6.42737 10.8087 5.06199C10.8087 3.6418 10.2904 2.27461 9.34947 1.21234C9.15871 0.996685 9.16838 0.670238 9.3714 0.46645L9.44285 0.394866C9.54887 0.288329 9.68662 0.229644 9.84462 0.234674C9.99463 0.23893 10.1365 0.305226 10.2362 0.417438C11.3735 1.69795 12 3.3476 12 5.06199C12.0003 6.71151 11.4146 8.31395 10.3509 9.57395Z" fill="#89B4CF"/>
</svg>
