<svg width="12" height="15" viewBox="0 0 12 15" fill="none" xmlns="http://www.w3.org/2000/svg">
<path d="M10.022 7.6357C10.0427 9.81073 11.9786 10.5345 12 10.5438C11.9836 10.5948 11.6907 11.5752 10.9801 12.588C10.3659 13.4635 9.72836 14.3358 8.72408 14.3539C7.73728 14.3716 7.41997 13.7832 6.29178 13.7832C5.16393 13.7832 4.81139 14.3358 3.87727 14.3716C2.90789 14.4074 2.16972 13.4248 1.55036 12.5525C0.284779 10.7681 -0.682388 7.51023 0.616273 5.31111C1.26142 4.21901 2.41435 3.52745 3.66575 3.50972C4.61765 3.49201 5.51614 4.13427 6.09805 4.13427C6.67959 4.13427 7.77144 3.3619 8.91926 3.47533C9.39978 3.49483 10.7486 3.66463 11.6147 4.901C11.5449 4.94319 10.0053 5.8173 10.022 7.6357V7.6357ZM8.16746 2.2948C8.68211 1.68726 9.0285 0.841513 8.934 0C8.19217 0.0290766 7.29513 0.482093 6.76304 1.0893C6.28618 1.627 5.86855 2.48764 5.98123 3.31249C6.80809 3.37488 7.65278 2.90272 8.16746 2.2948" fill="white"/>
</svg>
