<svg width="32" height="15" viewBox="0 0 32 15" fill="none" xmlns="http://www.w3.org/2000/svg">
<path d="M2.58146 14.1671C2.32818 14.0758 1.88983 13.7837 1.53914 13.4642C1.00337 12.9804 0.905962 12.8343 0.720878 12.2775C0.526053 11.6477 0.516312 11.4834 0.545536 7.12004C0.574759 2.68369 0.574759 2.5924 0.789067 2.09948C1.05208 1.49701 1.72423 0.830644 2.35741 0.52941L2.81525 0.31946L14.2028 0.292075C24.6649 0.273818 25.6293 0.282947 26.0384 0.428999C26.8761 0.711976 27.4411 1.2049 27.8503 1.98994L28.0938 2.47374V7.28435V12.095L27.8113 12.6427C27.4703 13.2816 27.3924 13.3729 26.8761 13.7472C25.9994 14.3679 26.8177 14.3314 14.3099 14.3223C3.9842 14.3223 2.97111 14.304 2.58146 14.1671ZM24.7233 13.1903C25.6 13.163 25.7364 13.1265 26.0871 12.8982C26.3014 12.7522 26.5644 12.4966 26.6813 12.3232C26.8664 12.0128 26.8761 11.8485 26.9054 7.50342C26.9248 4.53673 26.8956 2.88451 26.8274 2.64717C26.691 2.18163 26.3014 1.7526 25.8046 1.54265C25.4344 1.37834 24.8694 1.36921 14.3294 1.36921C2.16258 1.36921 3.00033 1.3327 2.34767 1.90778C1.79242 2.39158 1.79242 2.34594 1.79242 7.44865C1.79242 10.032 1.82164 12.1406 1.87035 12.1406C1.90931 12.1406 2.00672 12.2593 2.10414 12.4053C2.19181 12.5514 2.44508 12.7887 2.67887 12.9348L3.09774 13.1903L9.28344 13.1721C12.6929 13.163 16.0536 13.1903 16.7452 13.2269C17.9239 13.2999 22.4926 13.2816 24.7233 13.1903Z" fill="white"/>
<path d="M3.63353 11.7493C3.0588 11.3933 3.04906 11.2564 3.07828 7.04827L3.1075 3.26916L3.46793 2.9588L3.8381 2.64844H12.2156H20.5931V7.30386V11.9593H12.274H3.96474L3.63353 11.7493Z" fill="white"/>
<path d="M29.457 7.30243C29.457 4.92907 29.4765 4.47266 29.5934 4.47266C29.8856 4.47266 30.7526 4.97471 31.0838 5.33072C31.7073 6.01534 31.8339 6.34396 31.8436 7.25679C31.8436 7.95054 31.8047 8.15136 31.6098 8.53475C31.2105 9.28327 30.4409 9.91312 29.7298 10.0774L29.457 10.1322V7.30243Z" fill="white"/>
</svg>
