<svg width="12" height="12" viewBox="0 0 12 12" fill="none" xmlns="http://www.w3.org/2000/svg">
<path d="M6 3.375C4.55257 3.375 3.375 4.55257 3.375 6C3.375 7.44743 4.55257 8.625 6 8.625C7.44743 8.625 8.625 7.44743 8.625 6C8.625 4.55257 7.44743 3.375 6 3.375Z" fill="#89B4CF"/>
<path d="M6 9.75C5.68934 9.75 5.4375 10.0018 5.4375 10.3125V11.4375C5.4375 11.7482 5.68934 12 6 12C6.31066 12 6.5625 11.7482 6.5625 11.4375V10.3125C6.5625 10.0018 6.31066 9.75 6 9.75Z" fill="#89B4CF"/>
<path d="M2.95081 8.48576C2.80685 8.48576 2.6629 8.54067 2.55305 8.6505L1.75753 9.44602C1.53785 9.6657 1.53785 10.0219 1.75753 10.2415C1.97721 10.4612 2.33335 10.4612 2.55302 10.2415L3.34852 9.44602C3.5682 9.22634 3.5682 8.87018 3.34852 8.65052C3.23871 8.5407 3.09476 8.48576 2.95081 8.48576Z" fill="#89B4CF"/>
<path d="M1.6875 5.4375H0.5625C0.251836 5.4375 0 5.68934 0 6C0 6.31066 0.251836 6.5625 0.5625 6.5625H1.6875C1.99816 6.5625 2.25 6.31066 2.25 6C2.25 5.68934 1.99816 5.4375 1.6875 5.4375Z" fill="#89B4CF"/>
<path d="M2.15529 1.59516C2.01134 1.59516 1.86738 1.65007 1.75753 1.7599C1.53785 1.97958 1.53785 2.33573 1.75753 2.55539L2.55302 3.35088C2.7727 3.57054 3.12884 3.57054 3.34852 3.35088C3.5682 3.1312 3.5682 2.77505 3.34852 2.55539L2.55302 1.7599C2.4432 1.65007 2.29924 1.59516 2.15529 1.59516Z" fill="#89B4CF"/>
<path d="M6 0C5.68934 0 5.4375 0.251836 5.4375 0.5625V1.6875C5.4375 1.99816 5.68934 2.25 6 2.25C6.31066 2.25 6.5625 1.99816 6.5625 1.6875V0.5625C6.5625 0.251836 6.31066 0 6 0Z" fill="#89B4CF"/>
<path d="M9.84434 1.59516C9.70038 1.59516 9.55643 1.65007 9.44658 1.7599L8.65109 2.55539C8.43141 2.77507 8.43141 3.13123 8.65109 3.35088C8.87077 3.57054 9.2269 3.57054 9.44658 3.35088L10.2421 2.55539C10.4618 2.33571 10.4618 1.97955 10.2421 1.7599C10.1322 1.65007 9.98829 1.59516 9.84434 1.59516Z" fill="#89B4CF"/>
<path d="M11.4375 5.4375H10.3125C10.0018 5.4375 9.75 5.68934 9.75 6C9.75 6.31066 10.0018 6.5625 10.3125 6.5625H11.4375C11.7482 6.5625 12 6.31066 12 6C12 5.68934 11.7482 5.4375 11.4375 5.4375Z" fill="#89B4CF"/>
<path d="M9.04982 8.48578C8.90587 8.48578 8.76192 8.5407 8.65206 8.65052C8.43238 8.8702 8.43238 9.22636 8.65206 9.44602L9.44756 10.2415C9.66724 10.4612 10.0234 10.4612 10.243 10.2415C10.4627 10.0218 10.4627 9.66567 10.243 9.44602L9.44756 8.65052C9.33775 8.54072 9.1938 8.48578 9.04982 8.48578Z" fill="#89B4CF"/>
</svg>
