<svg width="6" height="6" viewBox="0 0 6 6" fill="none" xmlns="http://www.w3.org/2000/svg">
<g clip-path="url(#clip0)">
<rect width="6" height="6" transform="matrix(1 0 0 -1 0 6)" fill=""/>
<path d="M3.54969 2.99426L5.88598 5.33062C6.03802 5.48259 6.03802 5.7283 5.88598 5.88027C5.73401 6.03224 5.48829 6.03224 5.33632 5.88027L2.99997 3.54392L0.663686 5.88027C0.511645 6.03224 0.266001 6.03224 0.114031 5.88027C-0.0380103 5.7283 -0.0380103 5.48259 0.114031 5.33062L2.45031 2.99426L0.114031 0.65791C-0.0380103 0.50594 -0.0380103 0.260225 0.114031 0.108255C0.189767 0.0324481 0.289348 -0.00563336 0.388858 -0.00563336C0.488369 -0.00563336 0.587879 0.0324481 0.663686 0.108255L2.99997 2.44461L5.33632 0.108255C5.41213 0.0324481 5.51164 -0.00563336 5.61115 -0.00563336C5.71066 -0.00563336 5.81017 0.0324481 5.88598 0.108255C6.03802 0.260225 6.03802 0.50594 5.88598 0.65791L3.54969 2.99426Z" fill="#6B231D"/>
</g>
<defs>
<clipPath id="clip0">
<rect width="6" height="6" fill="white" transform="matrix(1 0 0 -1 0 6)"/>
</clipPath>
</defs>
</svg>
