<svg width="21" height="11" viewBox="0 0 21 11" fill="none" xmlns="http://www.w3.org/2000/svg">
<path d="M10.0323 1.118C9.90244 1.18802 9.76541 1.32171 9.72935 1.41083C9.68608 1.49995 9.65723 2.47393 9.65723 3.70254C9.65723 6.01335 9.67165 6.10883 10.0539 6.26162C10.4073 6.40803 10.7318 6.3571 10.9987 6.12157L11.2439 5.90513V3.73437C11.2439 1.32171 11.2367 1.28351 10.7823 1.09254C10.465 0.958854 10.3207 0.96522 10.0323 1.118Z" fill="black"/>
<path d="M3.69889 3.92353C3.42482 4.01902 3.2373 4.29912 3.2373 4.61105V4.90388L5.06199 6.51444L6.87947 8.125H7.19681C7.45644 8.125 7.5502 8.0868 7.75215 7.90856C7.9613 7.72395 7.99736 7.64756 7.99736 7.38656V7.081L6.28807 5.55956C5.34327 4.72563 4.48502 3.99993 4.37683 3.949C4.16047 3.84714 3.92968 3.84078 3.69889 3.92353Z" fill="black"/>
<path d="M16.4724 3.97394C16.1046 4.19038 12.9889 6.99772 12.9023 7.19507C12.6643 7.75526 13.4 8.32819 14.0058 8.05446C14.0924 8.0099 14.9506 7.27782 15.917 6.4248L17.6624 4.86516V4.58506C17.6624 4.02487 16.9844 3.68111 16.4724 3.97394Z" fill="black"/>
<path d="M0.43908 9.63134C-0.152321 9.88597 -0.145109 10.6308 0.453504 10.8854C0.821327 11.0382 3.9947 11.0382 4.36252 10.8854C4.96835 10.6308 4.96835 9.87961 4.36252 9.62497C4.00191 9.47219 0.792478 9.47856 0.43908 9.63134Z" fill="black"/>
<path d="M7.01011 9.56927C6.78653 9.60747 6.50526 9.87483 6.45477 10.104C6.40429 10.3332 6.54132 10.6515 6.77211 10.8297C6.92356 10.9507 7.03175 10.957 10.4503 10.957C13.8689 10.957 13.9771 10.9507 14.1286 10.8297C14.6478 10.4159 14.5613 9.8812 13.9338 9.59474C13.8256 9.54381 12.7943 9.52471 10.472 9.53108C8.65449 9.53744 7.09666 9.55654 7.01011 9.56927Z" fill="black"/>
<path d="M16.5074 9.64509C16.0963 9.83606 15.9593 10.2244 16.1829 10.6C16.3848 10.9501 16.6156 10.9883 18.4042 10.9883C19.2913 10.9883 20.1207 10.9692 20.2506 10.9501C20.7266 10.8673 21.0223 10.3644 20.8347 9.96338C20.777 9.84879 20.6328 9.72148 20.4669 9.64509C20.2145 9.53687 20.0342 9.52413 18.4764 9.52413C16.9402 9.52413 16.731 9.53687 16.5074 9.64509Z" fill="black"/>
</svg>
