<svg width="10" height="10" viewBox="0 0 10 10" fill="none" xmlns="http://www.w3.org/2000/svg">
<path d="M2.0125 2.78689C2.81055 1.98885 3.87164 1.54934 5.00025 1.54934H5.61973L4.62545 0.552617L5.17943 0L7.11588 1.94119L5.20471 3.88432L4.64684 3.33562L5.63416 2.3318H5.00025C3.10186 2.3318 1.55738 3.87625 1.55738 5.77467C1.55738 7.67309 3.10186 9.21754 5.00025 9.21754C6.89865 9.21754 8.44312 7.67307 8.44312 5.77459V5.38336L9.22559 5.38344V5.77467C9.22559 6.9033 8.78607 7.96437 7.98801 8.76242C7.18996 9.56049 6.12887 10 5.00025 10C3.87164 10 2.81055 9.56049 2.0125 8.76242C1.21443 7.96436 0.774922 6.90328 0.774922 5.77467C0.774922 4.64605 1.21443 3.58496 2.0125 2.78689Z" fill="black" fill-opacity="0.6"/>
</svg>
