<svg width="12" height="12" viewBox="0 0 12 12" fill="none" xmlns="http://www.w3.org/2000/svg">
<path d="M11.9918 1.21114C12.0503 0.938825 11.7834 0.70921 11.5229 0.808584L0.22617 5.12104C0.0902107 5.17295 0.000281909 5.30327 6.6158e-07 5.44879C-0.000280586 5.59433 0.0891326 5.725 0.224905 5.77743L3.39838 7.00308V10.8635C3.39838 11.0263 3.5102 11.1679 3.66864 11.2055C3.82602 11.2429 3.99013 11.1681 4.06391 11.0217L5.37642 8.41717L8.57945 10.7942C8.77428 10.9389 9.05433 10.8469 9.12523 10.6145C12.1158 0.809358 11.9865 1.23578 11.9918 1.21114V1.21114ZM9.20325 2.44671L3.70011 6.36587L1.33229 5.45139L9.20325 2.44671ZM4.1015 6.9432L8.89836 3.52705C4.77073 7.88146 4.9863 7.65227 4.9683 7.6765C4.94156 7.71248 5.01483 7.57225 4.1015 9.38466V6.9432ZM8.59813 9.93252L5.77872 7.84014L10.8766 2.46218L8.59813 9.93252Z" fill="#4682B4"/>
</svg>
